{
  "asset": {
    "version": "2.0",
    "generator": "Sketchup glTF Exporter v1.2.6 by Centaur"
  },
  "scene": 0,
  "scenes": [
    {
      "nodes": [
        0
      ]
    }
  ],
  "samplers": [
    {
    }
  ],
  "nodes": [
    {
      "name": "root",
      "children": [
        1,
        2,
        3
      ]
    },
    {
      "name": "Component#1",
      "mesh": 0
    },
    {
      "name": "Component#1",
      "mesh": 1
    },
    {
      "name": "Component#4",
      "mesh": 2
    }
  ],
  "materials": [
    {
      "pbrMetallicRoughness": {
        "baseColorTexture": {
          "index": 0
        },
        "metallicFactor": 0.1,
        "roughnessFactor": 0.9
      },
      "name": "light-wood-grain-texture-high-definiton"
    }
  ],
  "images": [
    {
      "bufferView": 0,
      "mimeType": "image/jpeg"
    }
  ],
  "textures": [
    {
      "source": 0,
      "sampler": 0
    }
  ],
  "meshes": [
    {
      "primitives": [
        {
          "attributes": {
            "POSITION": 0,
            "NORMAL": 1,
            "TEXCOORD_0": 2
          },
          "indices": 3,
          "mode": 4,
          "material": 0
        }
      ]
    },
    {
      "primitives": [
        {
          "attributes": {
            "POSITION": 0,
            "NORMAL": 1,
            "TEXCOORD_0": 2
          },
          "indices": 4,
          "mode": 4,
          "material": 0
        }
      ]
    },
    {
      "primitives": [
        {
          "attributes": {
            "POSITION": 0,
            "NORMAL": 1,
            "TEXCOORD_0": 2
          },
          "indices": 5,
          "mode": 4,
          "material": 0
        }
      ]
    }
  ],
  "accessors": [
    {
      "bufferView": 1,
      "componentType": 5126,
      "count": 1508,
      "type": "VEC3",
      "min": [
        0.03496175267954999,
        -1.3609390642829915e-16,
        -2.2416321603919274
      ],
      "max": [
        3.94338675267955,
        0.9913916590782798,
        -0.6795321603919267
      ]
    },
    {
      "bufferView": 2,
      "componentType": 5126,
      "count": 1508,
      "type": "VEC3",
      "min": [
        -1.0,
        -1.0,
        -1.0
      ],
      "max": [
        1.0,
        1.0,
        1.0
      ]
    },
    {
      "bufferView": 3,
      "componentType": 5126,
      "count": 1508,
      "type": "VEC2",
      "min": [
        5.941270574925852e-17,
        -1.8825009905620074
      ],
      "max": [
        0.8809837801404402,
        0.9999999999999998
      ]
    },
    {
      "bufferView": 4,
      "componentType": 5123,
      "count": 852,
      "type": "SCALAR"
    },
    {
      "bufferView": 4,
      "componentType": 5123,
      "count": 852,
      "type": "SCALAR",
      "byteOffset": 1704
    },
    {
      "bufferView": 4,
      "componentType": 5123,
      "count": 1512,
      "type": "SCALAR",
      "byteOffset": 3408
    }
  ],
  "bufferViews": [
    {
      "buffer": 0,
      "byteLength": 106018
    },
    {
      "buffer": 0,
      "byteOffset": 106020,
      "byteLength": 18096,
      "target": 34962,
      "byteStride": 12
    },
    {
      "buffer": 0,
      "byteOffset": 124116,
      "byteLength": 18096,
      "target": 34962,
      "byteStride": 12
    },
    {
      "buffer": 0,
      "byteOffset": 142216,
      "byteLength": 12064,
      "target": 34962,
      "byteStride": 8
    },
    {
      "buffer": 0,
      "byteOffset": 154280,
      "byteLength": 6432,
      "target": 34963
    }
  ],
  "buffers": [
    {
      "uri": "data:application/octet-stream;base64,",
      "byteLength": 160712
    }
  ]
}